 <svg version="1.0" xmlns="http://www.w3.org/2000/svg"
                    width="300" height="300" viewBox="0 0 500.000000 500.000000"
                    preserveAspectRatio="xMidYMid meet">
                   <g transform="translate(0.000000,500.000000) scale(0.100000,-0.100000)"
                   fill="#FFFFFF" stroke="none">
                   <path d="M1430 4712 c-69 -7 -149 -18 -178 -24 -30 -6 -68 -12 -87 -12 -18 -1
                   -31 -4 -29 -8 5 -8 -53 -21 -65 -14 -5 3 -11 0 -14 -7 -2 -6 -22 -18 -43 -26
                   -21 -8 -55 -21 -74 -29 -19 -9 -37 -16 -40 -17 -3 0 -16 -7 -30 -16 -80 -49
                   -132 -79 -140 -79 -5 0 -10 -3 -12 -7 -2 -5 -30 -28 -63 -53 -78 -59 -191
                   -171 -241 -240 -22 -30 -52 -72 -67 -92 -45 -61 -114 -207 -149 -313 -18 -55
                   -36 -101 -39 -103 -4 -2 -5 -11 -2 -20 2 -10 -2 -37 -10 -59 -11 -32 -14 -92
                   -12 -260 3 -234 14 -305 78 -474 85 -224 240 -436 427 -586 19 -15 37 -30 40
                   -34 12 -15 194 -119 254 -145 36 -15 66 -32 66 -37 0 -4 4 -5 10 -2 5 3 20 0
                   32 -6 13 -7 32 -14 43 -16 11 -1 54 -12 95 -23 41 -12 86 -22 100 -23 14 -1
                   36 -15 50 -32 125 -152 324 -314 473 -384 26 -13 47 -27 47 -32 0 -5 157 -9
                   378 -9 l377 0 48 132 c27 73 47 137 45 141 -2 5 -43 11 -93 13 -183 10 -221
                   16 -340 56 -115 38 -175 66 -175 79 0 6 -4 8 -10 4 -9 -6 -130 65 -130 76 0 4
                   15 12 33 19 17 6 52 20 77 31 25 10 52 20 60 21 8 2 17 6 20 9 3 3 39 25 80
                   49 69 40 103 63 170 115 66 51 221 220 271 295 163 248 228 446 234 725 4 169
                   -4 257 -35 381 -32 126 -112 312 -169 392 -11 17 -21 35 -21 40 0 6 -3 12 -7
                   14 -5 2 -34 35 -66 75 -62 77 -169 181 -233 228 -21 16 -43 34 -49 39 -5 6
                   -27 20 -47 31 -21 11 -38 23 -38 27 0 5 -3 7 -7 6 -5 -1 -45 17 -90 39 -46 23
                   -100 47 -120 53 -21 7 -42 16 -48 20 -25 18 -211 56 -315 65 -47 4 -87 10 -90
                   14 -3 3 -61 0 -130 -7z m245 -467 c43 -8 83 -19 90 -25 6 -5 14 -7 17 -4 4 3
                   37 -7 74 -22 262 -104 472 -336 551 -606 24 -84 27 -109 26 -248 0 -162 -8
                   -213 -55 -330 -96 -241 -309 -449 -538 -525 -30 -10 -64 -21 -75 -25 -98 -37
                   -341 -45 -450 -16 -95 26 -125 37 -125 47 0 6 -5 7 -10 4 -14 -8 -140 53 -205
                   99 -131 94 -254 246 -315 392 -42 100 -49 126 -66 249 -52 357 141 727 477
                   913 71 40 159 73 172 65 5 -3 12 0 16 6 22 35 284 51 416 26z"/>
                   <path d="M3302 4708 c-17 -34 -62 -150 -62 -160 0 -4 -8 -27 -19 -51 -10 -23
                   -33 -80 -51 -127 -18 -47 -39 -98 -46 -115 -6 -16 -46 -118 -87 -225 l-75
                   -195 29 -115 c16 -63 28 -127 26 -142 -2 -15 1 -29 7 -31 14 -5 15 -383 2
                   -412 -5 -11 -8 -30 -7 -41 5 -53 -64 -278 -123 -399 -126 -257 -338 -496 -571
                   -644 -46 -29 -62 -49 -64 -76 -1 -6 88 -9 250 -8 248 2 279 6 279 37 0 6 38
                   115 86 241 121 326 127 339 138 347 6 4 264 8 572 8 437 0 564 -3 572 -12 6
                   -7 22 -44 37 -83 15 -38 31 -79 35 -90 5 -11 24 -63 43 -115 80 -218 110 -296
                   122 -315 12 -19 21 -20 259 -17 l246 3 0 22 c0 13 -4 27 -9 33 -8 8 -50 113
                   -168 429 -25 66 -85 224 -133 350 -49 127 -109 286 -135 355 -26 69 -86 229
                   -135 355 -48 127 -116 304 -150 395 -34 91 -65 174 -70 185 -5 11 -54 139
                   -111 285 -56 146 -111 284 -122 308 l-19 42 -267 0 c-268 0 -268 0 -279 -22z
                   m345 -759 c63 -165 219 -574 278 -729 24 -63 46 -125 50 -137 l6 -23 -395 0
                   c-218 0 -396 4 -396 9 0 4 9 30 19 57 20 50 258 677 328 861 21 57 43 101 48
                   100 6 -2 33 -64 62 -138z"/>
                   <path d="M250 880 l0 -360 80 0 80 0 0 360 0 360 -80 0 -80 0 0 -360z" fill="#dc3545"/>
                   <path d="M530 1175 l0 -65 80 0 80 0 0 65 0 65 -80 0 -80 0 0 -65z" fill="#dc3545"/>
                   <path d="M2825 1200 c-33 -22 -63 -40 -67 -40 -5 0 -8 -25 -8 -55 0 -54 0 -55
                   -30 -55 l-30 0 0 -60 0 -60 30 0 30 0 0 -157 c1 -239 20 -268 172 -261 42 2
                   80 6 83 10 4 4 4 32 0 63 -6 49 -9 55 -30 55 -13 0 -26 -6 -29 -12 -3 -9 -9
                   -7 -20 6 -13 16 -16 48 -16 158 l0 138 45 0 45 0 0 60 0 60 -45 0 -45 0 0 95
                   c0 69 -3 95 -12 95 -7 0 -40 -18 -73 -40z" fill="#dc3545"/>
                   <path d="M4020 1130 c0 -60 -2 -110 -5 -110 -2 0 -19 9 -37 20 -23 14 -51 20
                   -88 20 -62 0 -130 -16 -130 -30 0 -6 -5 -10 -11 -10 -16 0 -36 -26 -64 -85
                   -21 -43 -25 -64 -24 -145 0 -52 6 -110 12 -128 15 -39 77 -121 94 -122 6 0 13
                   -5 15 -11 2 -7 35 -14 78 -16 66 -4 81 -2 123 21 45 24 47 25 47 6 0 -18 7
                   -20 75 -20 l75 0 0 360 0 360 -80 0 -80 0 0 -110z m-90 -189 c0 -5 10 -11 21
                   -13 90 -13 88 -288 -2 -288 -9 0 -20 -6 -22 -12 -4 -10 -8 -10 -14 -1 -4 6
                   -20 14 -35 18 -20 5 -31 18 -44 51 -29 76 -7 224 33 224 7 0 13 4 13 10 0 5 7
                   7 15 4 8 -4 15 -1 15 5 0 6 5 11 10 11 6 0 10 -4 10 -9z" fill="#dc3545"/>
                   <path d="M1452 1039 c-82 -41 -122 -127 -122 -260 0 -95 25 -167 75 -216 40
                   -38 88 -53 174 -53 84 0 134 16 175 56 36 35 64 100 50 114 -5 5 -38 11 -74
                   15 -64 7 -66 6 -78 -19 -26 -57 -116 -52 -154 9 -33 55 -33 55 153 55 l172 0
                   -6 68 c-15 175 -90 251 -247 252 -57 0 -86 -5 -118 -21z m185 -133 c12 -11 25
                   -33 28 -48 l7 -28 -97 0 c-95 0 -96 0 -90 23 24 81 97 107 152 53z" fill="#dc3545"/>
                   <path d="M2270 1045 c-19 -8 -42 -17 -51 -20 -30 -12 -59 -79 -59 -138 0 -92
                   33 -118 207 -162 106 -27 113 -30 113 -54 0 -13 -12 -22 -42 -30 -53 -15 -121
                   4 -126 35 -2 10 -8 23 -12 27 -9 10 -130 -1 -149 -12 -38 -24 62 -150 134
                   -170 60 -16 198 -14 244 5 21 8 54 34 72 57 28 34 34 51 37 102 4 54 1 64 -22
                   92 -28 33 -99 65 -171 77 -22 4 -62 14 -88 22 -40 13 -48 20 -45 37 2 16 9 21
                   26 19 12 -2 22 0 22 5 0 4 11 8 25 8 14 0 25 -3 25 -7 0 -4 10 -8 23 -10 12
                   -2 26 -13 32 -25 10 -25 24 -27 98 -17 59 8 67 29 35 87 -35 64 -89 87 -203
                   86 -52 0 -105 -6 -125 -14z" fill="#dc3545"/>
                   <path d="M530 785 l0 -265 80 0 80 0 0 265 0 265 -80 0 -80 0 0 -265z" fill="#dc3545"/>
                   <path d="M740 1045 c0 -6 28 -79 126 -328 l78 -198 74 3 74 3 13 35 c8 19 28
                   73 45 120 17 47 42 108 55 135 22 48 95 226 95 232 0 2 -38 3 -84 3 -82 0 -84
                   -1 -94 -27 -5 -16 -27 -75 -47 -133 -21 -58 -42 -116 -47 -130 -8 -22 -12 -16
                   -38 55 -15 44 -40 115 -56 158 l-28 77 -83 0 c-46 0 -83 -2 -83 -5z" fill="#dc3545"/>
                   <path d="M3072 838 c3 -203 4 -215 27 -255 17 -30 35 -46 65 -57 63 -24 144
                   -21 200 9 44 23 46 24 46 5 0 -18 7 -20 75 -20 l75 0 0 265 0 265 -79 0 -79 0
                   -4 -184 c-3 -164 -5 -186 -22 -205 -11 -12 -27 -21 -38 -21 -10 0 -18 -5 -18
                   -10 0 -10 -20 -10 -30 0 -3 3 -14 10 -25 16 -27 15 -33 64 -34 252 l-1 152
                   -81 0 -80 0 3 -212z" fill="#dc3545"/>
                   <path d="M4220 1046 c0 -2 13 -40 29 -83 16 -43 57 -154 92 -248 34 -93 66
                   -175 72 -182 9 -13 4 -22 -45 -75 -25 -27 -32 -29 -72 -23 l-44 7 5 -49 c2
                   -26 6 -54 8 -60 5 -17 195 -18 195 -2 0 5 5 7 10 4 6 -3 10 -1 10 6 0 7 3 9 7
                   6 17 -18 114 194 138 301 3 18 12 38 19 45 7 7 34 75 61 152 26 77 52 142 56
                   143 5 2 9 17 9 33 l0 30 -81 -3 -81 -3 -51 -157 c-28 -87 -53 -158 -57 -158
                   -3 0 -29 71 -57 158 l-52 157 -85 3 c-47 1 -86 1 -86 -2z" fill="#dc3545"/>
                   <path d="M1920 595 l0 -75 75 0 75 0 0 75 0 75 -75 0 -75 0 0 -75z" fill="#dc3545"/>
                   </g>
                   </svg>
