<svg xmlns="http://www.w3.org/2000/svg" width="32" height="32" viewBox="0 0 32 32">
    <g fill="none" fill-rule="evenodd">
        <path fill="#0A1331" d="M16 32c8.837 0 16-7.163 16-16S24.837 0 16 0 0 7.163 0 16s7.163 16 16 16z" opacity=".3"/>
        <path fill="#FFC620" d="M17.41 9.384l5.607 10.195a1.888 1.888 0 0 1-1.654 2.798H10.149a1.888 1.888 0 0 1-1.654-2.798l5.607-10.195a1.888 1.888 0 0 1 3.308 0zm-1.654 2.593a.8.8 0 0 0-.8.8v4a.8.8 0 1 0 1.6 0v-4a.8.8 0 0 0-.8-.8zm0 6.4a.8.8 0 1 0 0 1.6.8.8 0 0 0 0-1.6z"/>
    </g>
</svg>
